<?xml version="1.0" encoding="utf-8"?>
<!-- Generator: Adobe Illustrator 16.0.0, SVG Export Plug-In . SVG Version: 6.00 Build 0)  -->
<!DOCTYPE svg PUBLIC "-//W3C//DTD SVG 1.1//EN" "http://www.w3.org/Graphics/SVG/1.1/DTD/svg11.dtd">
<svg version="1.1" id="Layer_1" xmlns="http://www.w3.org/2000/svg" xmlns:xlink="http://www.w3.org/1999/xlink" x="0px" y="0px"
	 width="200px" height="38.684px" viewBox="0 0 200 38.684" enable-background="new 0 0 200 38.684" xml:space="preserve">
<g enable-background="new    ">
	<path fill="#669A0A" d="M11.483,4.835c2.799,0,4.983,0.545,6.551,1.634c1.568,1.089,2.353,2.717,2.353,4.885
		c0,1.1-0.292,2.082-0.874,2.948s-1.429,1.517-2.54,1.952c1.426,0.305,2.497,0.958,3.21,1.96c0.713,1.002,1.07,2.162,1.07,3.479
		c0,2.276-0.751,4-2.254,5.171s-3.632,1.756-6.387,1.756H0.915v-2.858l2.532-0.49V8.2L0.915,7.71V4.835h2.532H11.483z M8.216,14.8
		h3.431c1.274,0,2.254-0.261,2.94-0.784c0.686-0.522,1.029-1.285,1.029-2.287c0-1.1-0.346-1.911-1.038-2.434
		c-0.691-0.522-1.723-0.784-3.096-0.784H8.216V14.8z M8.216,18.1v6.861h4.395c1.263,0,2.227-0.275,2.892-0.825
		c0.664-0.55,0.996-1.364,0.996-2.442c0-1.165-0.283-2.055-0.849-2.671C15.083,18.407,14.19,18.1,12.97,18.1H8.216z"/>
	<path fill="#669A0A" d="M34.403,28.62c-0.131-0.294-0.245-0.597-0.343-0.906c-0.098-0.311-0.174-0.624-0.229-0.939
		c-0.566,0.653-1.255,1.182-2.066,1.584c-0.812,0.403-1.74,0.604-2.786,0.604c-1.731,0-3.106-0.471-4.125-1.413
		c-1.019-0.941-1.527-2.224-1.527-3.847c0-1.655,0.664-2.935,1.993-3.839s3.278-1.356,5.849-1.356h2.434v-1.731
		c0-0.85-0.245-1.508-0.735-1.977c-0.49-0.468-1.214-0.702-2.173-0.702c-0.544,0-1.029,0.063-1.454,0.188
		c-0.425,0.126-0.768,0.275-1.029,0.449l-0.311,1.896h-3.594l0.017-3.921c0.871-0.588,1.87-1.084,2.998-1.486
		c1.127-0.403,2.355-0.604,3.684-0.604c2.189,0,3.967,0.536,5.333,1.609c1.367,1.072,2.05,2.6,2.05,4.582v7.302
		c0,0.272,0.002,0.528,0.008,0.768c0.005,0.24,0.024,0.469,0.057,0.687l1.454,0.196v2.858H34.403z M30.27,25.435
		c0.719,0,1.373-0.155,1.96-0.466c0.588-0.311,1.045-0.699,1.372-1.168v-2.695h-2.434c-1.013,0-1.781,0.237-2.304,0.711
		c-0.522,0.474-0.784,1.043-0.784,1.707c0,0.599,0.193,1.067,0.58,1.404C29.047,25.266,29.583,25.435,30.27,25.435z"/>
	<path fill="#669A0A" d="M55.95,17.022h-3.202l-0.506-2.205c-0.327-0.262-0.738-0.479-1.233-0.653s-1.043-0.262-1.642-0.262
		c-0.839,0-1.503,0.188-1.993,0.563s-0.735,0.847-0.735,1.413c0,0.534,0.234,0.978,0.703,1.332c0.468,0.354,1.405,0.667,2.81,0.938
		c2.189,0.437,3.812,1.076,4.868,1.92s1.585,2.007,1.585,3.487c0,1.591-0.684,2.89-2.05,3.896c-1.367,1.008-3.167,1.511-5.399,1.511
		c-1.362,0-2.611-0.198-3.75-0.596c-1.138-0.397-2.148-0.967-3.03-1.707l-0.049-3.97h3.333l0.653,2.303
		c0.283,0.24,0.67,0.417,1.16,0.531c0.49,0.114,1.001,0.172,1.536,0.172c0.969,0,1.707-0.175,2.213-0.523
		c0.506-0.348,0.759-0.821,0.759-1.421c0-0.522-0.256-0.975-0.768-1.355c-0.512-0.382-1.454-0.719-2.826-1.013
		c-2.08-0.425-3.651-1.054-4.713-1.888c-1.062-0.833-1.593-1.968-1.593-3.405c0-1.481,0.61-2.758,1.83-3.831
		c1.22-1.072,2.957-1.609,5.211-1.609c1.372,0,2.671,0.186,3.896,0.556s2.186,0.844,2.883,1.421L55.95,17.022z"/>
	<path fill="#669A0A" d="M58.237,6.012V3.136h7.302v14.768h1.062l2.745-3.871l-1.552-0.213v-2.875h8.691v2.875l-2.091,0.475
		l-3.185,4.378l4.459,6.714l1.813,0.376v2.858h-8.168v-2.858l0.98-0.164l-2.712-4.378h-2.042v4.052l2.059,0.49v2.858h-9.116v-2.858
		l2.304-0.49V6.501L58.237,6.012z"/>
	<path fill="#669A0A" d="M87.282,28.963c-2.548,0-4.585-0.816-6.11-2.45s-2.287-3.708-2.287-6.224v-0.653
		c0-2.625,0.721-4.787,2.164-6.485c1.443-1.699,3.379-2.543,5.808-2.532c2.385,0,4.236,0.719,5.554,2.156
		c1.317,1.438,1.977,3.382,1.977,5.832v2.598H83.835l-0.033,0.098c0.087,1.165,0.476,2.124,1.168,2.875
		c0.691,0.751,1.631,1.127,2.818,1.127c1.056,0,1.933-0.106,2.63-0.318c0.697-0.212,1.459-0.547,2.287-1.005l1.291,2.94
		c-0.729,0.578-1.674,1.063-2.834,1.454C90.002,28.768,88.709,28.963,87.282,28.963z M86.857,14.294
		c-0.882,0-1.579,0.337-2.091,1.013c-0.512,0.675-0.828,1.563-0.948,2.662l0.049,0.082h5.848v-0.425
		c0-1.013-0.237-1.821-0.711-2.426C88.532,14.596,87.815,14.294,86.857,14.294z"/>
	<path fill="#669A0A" d="M103.684,6.615v4.329h3.104v3.35h-3.104v9.001c0,0.686,0.141,1.176,0.424,1.47s0.664,0.441,1.145,0.441
		c0.326,0,0.612-0.014,0.857-0.041c0.244-0.027,0.52-0.073,0.824-0.139l0.408,3.446c-0.533,0.164-1.061,0.286-1.584,0.368
		c-0.522,0.081-1.089,0.122-1.699,0.122c-1.645,0-2.91-0.451-3.798-1.355s-1.331-2.336-1.331-4.297v-9.017h-2.598v-3.35h2.598V6.615
		H103.684z"/>
</g>
<g enable-background="new    ">
	<path fill="#F3BF15" d="M126.799,11.86h-2.434l-0.605-3.397c-0.49-0.414-1.143-0.757-1.96-1.029
		c-0.816-0.272-1.765-0.408-2.843-0.408c-1.709,0-3.021,0.362-3.937,1.086c-0.915,0.725-1.372,1.669-1.372,2.834
		c0,1.035,0.465,1.898,1.396,2.59s2.438,1.299,4.518,1.821c2.504,0.621,4.407,1.535,5.709,2.744
		c1.301,1.209,1.952,2.707,1.952,4.492c0,1.917-0.782,3.458-2.345,4.623c-1.563,1.166-3.607,1.748-6.134,1.748
		c-1.829,0-3.455-0.3-4.876-0.898c-1.422-0.599-2.578-1.383-3.472-2.353v-4.427h2.418l0.62,3.414
		c0.621,0.513,1.361,0.932,2.223,1.258c0.859,0.327,1.889,0.49,3.087,0.49c1.622,0,2.905-0.343,3.847-1.029
		c0.942-0.686,1.414-1.617,1.414-2.793c0-1.089-0.408-2.001-1.226-2.736s-2.261-1.354-4.329-1.854
		c-2.516-0.599-4.481-1.48-5.897-2.646c-1.415-1.165-2.124-2.63-2.124-4.394c0-1.862,0.79-3.412,2.369-4.648
		c1.579-1.235,3.632-1.854,6.158-1.854c1.667,0,3.184,0.286,4.551,0.857c1.365,0.572,2.463,1.266,3.291,2.083V11.86z"/>
	<path fill="#F3BF15" d="M129.805,26.562l2.663-0.457V5.668l-2.663-0.457V3.136h5.881v10.161c0.609-0.85,1.355-1.508,2.238-1.977
		c0.882-0.468,1.862-0.702,2.94-0.702c1.896,0,3.365,0.566,4.411,1.699c1.045,1.132,1.568,2.875,1.568,5.227v8.561l2.662,0.457
		v2.059h-8.543v-2.059l2.662-0.457v-8.593c0-1.459-0.313-2.537-0.939-3.234s-1.561-1.046-2.801-1.046
		c-0.883,0-1.686,0.21-2.41,0.629c-0.725,0.42-1.32,0.988-1.789,1.707v10.537l2.663,0.457v2.059h-8.544V26.562z"/>
	<path fill="#F3BF15" d="M163.375,28.62c-0.098-0.479-0.175-0.909-0.229-1.291c-0.055-0.381-0.094-0.762-0.115-1.143
		c-0.62,0.795-1.396,1.456-2.328,1.984c-0.931,0.528-1.924,0.792-2.98,0.792c-1.841,0-3.24-0.449-4.198-1.348
		s-1.438-2.164-1.438-3.798c0-1.677,0.679-2.971,2.035-3.88c1.355-0.909,3.215-1.364,5.578-1.364h3.316v-2.058
		c0-1.035-0.327-1.854-0.98-2.459s-1.563-0.906-2.729-0.906c-0.806,0-1.516,0.104-2.131,0.31c-0.615,0.207-1.114,0.49-1.495,0.85
		l-0.343,1.862h-2.483v-3.431c0.806-0.642,1.78-1.156,2.924-1.543s2.386-0.58,3.725-0.58c2.004,0,3.627,0.512,4.868,1.535
		c1.242,1.024,1.862,2.489,1.862,4.395v8.511c0,0.229,0.003,0.452,0.009,0.67c0.005,0.218,0.019,0.436,0.041,0.653l1.307,0.18v2.059
		H163.375z M158.196,26.268c1.067,0,2.042-0.256,2.925-0.768c0.881-0.512,1.513-1.127,1.895-1.846v-2.908h-3.431
		c-1.317,0-2.36,0.305-3.128,0.915c-0.769,0.61-1.152,1.351-1.152,2.222c0,0.773,0.24,1.364,0.719,1.772
		S157.227,26.268,158.196,26.268z"/>
	<path fill="#F3BF15" d="M170.269,13.02v-2.075h5.538l0.311,2.565c0.5-0.904,1.119-1.612,1.854-2.124
		c0.735-0.512,1.576-0.768,2.523-0.768c0.251,0,0.51,0.019,0.776,0.057c0.267,0.039,0.472,0.079,0.612,0.123l-0.424,2.989
		l-1.83-0.098c-0.85,0-1.563,0.198-2.141,0.596c-0.576,0.397-1.023,0.956-1.339,1.675v10.145l2.663,0.457v2.059h-8.544v-2.059
		l2.663-0.457V13.477L170.269,13.02z"/>
	<path fill="#F3BF15" d="M191.865,28.963c-2.462,0-4.42-0.819-5.873-2.458c-1.454-1.64-2.182-3.766-2.182-6.38v-0.719
		c0-2.516,0.749-4.608,2.246-6.28c1.498-1.672,3.271-2.508,5.318-2.508c2.373,0,4.174,0.719,5.398,2.156s1.838,3.354,1.838,5.75
		v2.01h-11.468l-0.049,0.081c0.032,1.699,0.462,3.096,1.29,4.19s1.988,1.642,3.48,1.642c1.088,0,2.044-0.155,2.866-0.466
		c0.822-0.31,1.532-0.737,2.132-1.282l1.258,2.091c-0.631,0.61-1.467,1.125-2.508,1.544
		C194.574,28.753,193.324,28.963,191.865,28.963z M191.375,13.151c-1.078,0-1.999,0.454-2.762,1.363
		c-0.762,0.91-1.23,2.051-1.404,3.423l0.033,0.082h8.15v-0.425c0-1.264-0.337-2.32-1.012-3.17
		C193.705,13.575,192.703,13.151,191.375,13.151z"/>
</g>
</svg>
